<?xml version="1.0" standalone="no"?>
<!DOCTYPE svg PUBLIC "-//W3C//DTD SVG 20010904//EN"
 "http://www.w3.org/TR/2001/REC-SVG-20010904/DTD/svg10.dtd">
<svg version="1.0" xmlns="http://www.w3.org/2000/svg"
 width="826.000000pt" height="367.000000pt" viewBox="0 0 826.000000 367.000000"
 preserveAspectRatio="xMidYMid meet">

<g transform="translate(0.000000,367.000000) scale(0.100000,-0.100000)"
fill="#000000" stroke="none">
<path d="M0 1835 l0 -1835 4130 0 4130 0 0 1835 0 1835 -4130 0 -4130 0 0
-1835z m6330 1499 c123 -8 130 -13 130 -112 0 -42 -5 -101 -12 -132 -6 -31 -8
-67 -5 -80 l6 -25 185 -2 c203 -2 230 -9 242 -62 5 -24 109 -239 137 -285 7
-11 27 -44 45 -72 17 -29 32 -58 32 -64 0 -5 5 -10 10 -10 6 0 10 -4 10 -10 0
-5 20 -44 45 -86 25 -41 45 -80 45 -85 0 -5 4 -9 9 -9 5 0 11 -8 15 -17 3 -10
15 -34 27 -53 11 -19 31 -53 42 -75 12 -22 24 -42 27 -45 3 -3 21 -34 39 -70
48 -92 55 -104 61 -110 16 -16 71 -141 65 -150 -3 -5 -32 -10 -64 -10 -67 0
-73 5 -120 100 -47 93 -82 158 -116 215 -50 84 -64 109 -82 145 -9 19 -20 37
-24 40 -4 3 -17 23 -28 45 -27 49 -44 78 -51 85 -9 9 -30 45 -41 70 -6 14 -19
34 -29 45 -10 11 -21 31 -25 45 -4 14 -11 27 -15 30 -3 3 -16 25 -29 50 -12
25 -31 59 -41 75 -10 17 -19 37 -19 46 -1 9 -7 22 -15 29 -8 6 -16 21 -18 33
-3 21 -10 22 -128 29 -69 4 -155 4 -192 1 -67 -5 -68 -6 -68 -34 0 -23 7 -32
33 -44 46 -22 96 -58 97 -71 0 -5 15 -25 33 -42 26 -26 47 -35 96 -43 34 -5
70 -13 79 -18 9 -5 31 -15 47 -22 17 -7 49 -31 73 -53 l42 -40 0 -143 c0 -132
2 -145 25 -189 14 -26 25 -52 25 -58 0 -6 24 -60 54 -121 99 -204 99 -205 46
-205 -20 0 -35 8 -46 25 -15 22 -23 25 -80 25 -34 0 -66 -4 -69 -10 -3 -5 -19
-10 -34 -10 -16 0 -34 -7 -41 -15 -7 -8 -25 -15 -40 -15 -15 0 -33 7 -40 15
-7 8 -27 15 -46 15 -18 0 -36 5 -39 10 -9 14 -242 13 -247 -1 -2 -7 -165 -10
-523 -10 -445 1 -523 -1 -539 -14 -23 -17 -112 -20 -121 -4 -4 6 2 17 13 25
12 8 28 21 36 29 8 8 18 15 22 15 4 0 18 10 31 22 19 18 33 21 88 19 74 -3
105 4 105 24 0 7 5 15 11 17 13 4 39 73 39 103 0 11 -5 43 -12 71 l-12 51 -30
-31 c-55 -56 -149 -125 -221 -161 -22 -11 -41 -23 -43 -27 -2 -5 -9 -8 -16 -8
-12 0 -59 -19 -98 -40 -9 -5 -35 -13 -58 -16 -22 -4 -40 -10 -40 -15 0 -5 -8
-9 -18 -9 -10 0 -22 -3 -26 -7 -4 -5 -33 -13 -64 -20 -31 -7 -86 -20 -122 -30
-60 -16 -146 -18 -1124 -20 -1120 -3 -1062 -5 -1171 37 -27 10 -153 69 -187
86 -14 8 -33 14 -42 14 -9 0 -16 3 -16 8 0 8 -73 42 -90 42 -6 0 -10 4 -10 9
0 5 -8 11 -17 15 -40 13 -92 51 -155 114 l-68 66 0 -100 0 -101 105 -6 c84 -5
111 -10 134 -26 16 -12 33 -21 38 -21 5 0 22 -13 37 -29 20 -21 29 -41 30 -68
l1 -38 -54 -3 c-56 -3 -88 11 -62 27 17 11 7 40 -16 47 -10 3 -29 11 -42 17
-15 8 -79 12 -166 12 -137 0 -149 -2 -215 -35 -9 -4 -30 -11 -47 -14 -22 -5
-33 -14 -35 -29 -4 -28 -58 -36 -78 -12 -23 28 3 88 45 105 19 8 45 29 58 49
40 61 167 330 167 353 0 8 4 18 10 24 5 5 12 43 16 84 6 71 48 190 66 190 5 0
8 6 8 14 0 7 29 41 64 73 52 49 65 68 71 101 l6 40 -74 7 c-41 4 -83 4 -93 1
-17 -5 -54 -71 -54 -96 0 -6 -4 -10 -8 -10 -5 0 -15 -18 -22 -40 -7 -22 -19
-45 -27 -51 -7 -6 -13 -17 -13 -23 0 -6 -7 -24 -16 -41 -9 -16 -37 -68 -61
-115 -24 -47 -55 -103 -68 -125 -14 -22 -48 -83 -76 -135 -29 -52 -55 -97 -59
-100 -4 -3 -11 -16 -15 -30 -4 -14 -15 -34 -25 -45 -10 -11 -23 -31 -29 -45
-11 -25 -32 -61 -41 -70 -3 -3 -12 -18 -20 -35 -8 -16 -25 -45 -38 -62 -23
-31 -29 -33 -81 -33 -65 0 -89 14 -67 39 14 16 37 54 82 140 13 24 28 49 33
55 5 6 23 39 40 72 17 34 38 67 45 73 8 7 18 26 21 42 4 16 11 29 15 29 5 0
17 17 26 38 10 20 28 54 41 75 13 21 49 86 80 145 31 59 59 109 63 112 4 3 11
16 15 30 4 14 16 37 26 52 11 14 19 31 19 37 0 6 13 36 30 66 16 30 30 62 30
69 0 7 7 19 15 26 8 7 15 20 15 29 0 9 8 26 18 39 17 22 26 24 122 25 l105 2
6 38 c4 23 18 51 37 70 27 28 53 44 144 88 10 5 42 9 72 9 30 0 58 5 61 10 3
6 19 10 36 10 16 0 29 -4 29 -10 0 -5 23 -10 51 -10 45 0 119 -17 174 -40 11
-5 33 -13 49 -17 34 -11 43 -23 51 -76 6 -37 35 -63 43 -39 2 7 17 12 32 12
16 0 31 4 34 9 3 5 31 12 61 16 30 3 55 10 55 15 0 4 36 11 80 15 44 4 80 11
80 15 0 8 32 14 160 30 203 24 1005 2 1045 -30 6 -4 58 -11 118 -15 59 -4 109
-10 112 -15 3 -4 35 -11 72 -14 76 -8 158 -24 188 -37 51 -24 151 -32 411 -36
l281 -4 7 86 c3 47 3 109 0 138 -6 47 -3 56 20 84 29 35 12 31 286 53 80 6
170 15 200 19 55 9 191 7 370 -5z m-5507 -2028 c13 -10 17 -24 15 -48 l-3 -33
-102 -3 -103 -3 0 -79 0 -80 85 0 c92 0 94 -2 79 -57 -6 -21 -12 -23 -85 -23
l-79 0 0 -90 0 -90 105 0 105 0 0 -28 c0 -48 -12 -52 -167 -52 l-143 0 -1 78
c-1 42 -2 160 -3 262 0 102 -5 194 -9 206 -6 15 -4 26 8 38 14 13 39 16 148
16 96 -1 137 -4 150 -14z m986 -18 c7 -18 19 -47 27 -65 8 -17 14 -40 14 -50
0 -10 4 -23 9 -28 4 -6 16 -35 27 -65 10 -30 22 -59 26 -65 4 -5 8 -16 8 -25
0 -8 7 -28 15 -44 8 -15 15 -36 15 -45 0 -9 13 -43 30 -76 16 -33 30 -70 30
-82 0 -21 -5 -23 -54 -23 -59 0 -51 -9 -91 103 l-17 47 -90 0 c-95 0 -110 -6
-122 -50 -4 -14 -11 -34 -16 -45 -4 -11 -11 -28 -14 -37 -4 -14 -16 -18 -50
-18 -25 0 -48 4 -51 10 -3 5 5 34 19 64 14 31 29 68 32 83 4 14 13 38 20 52 8
14 14 32 14 39 0 13 20 53 31 62 3 3 9 22 13 42 4 21 17 59 30 85 13 27 29 66
36 88 16 53 37 75 69 75 20 0 29 -8 40 -32z m586 22 c4 -6 100 -10 256 -10
l249 0 0 -40 0 -40 -96 0 -95 0 2 -247 2 -248 -51 -3 -52 -3 0 250 0 250 -101
3 c-55 2 -148 2 -205 0 l-104 -3 0 -80 0 -79 90 0 c50 0 90 -4 90 -9 0 -5 -3
-23 -6 -40 l-6 -31 -85 0 -85 0 3 -127 4 -128 -51 -3 c-39 -2 -53 1 -57 13 -4
8 -7 140 -7 292 -1 217 2 278 12 284 19 12 285 11 293 -1z m884 -14 c7 -12 11
-34 9 -47 -3 -23 -6 -24 -105 -27 l-103 -3 0 -79 0 -80 85 0 c83 0 85 -1 85
-24 0 -52 -7 -56 -91 -56 l-79 0 0 -90 0 -90 105 0 105 0 0 -28 c0 -48 -12
-52 -167 -52 l-143 0 0 254 c0 159 -4 257 -10 261 -14 9 -13 58 2 73 8 8 57
12 153 12 138 0 142 -1 154 -24z m334 9 c26 -4 47 -11 47 -15 0 -4 12 -11 26
-14 33 -9 51 -27 60 -60 3 -14 10 -26 15 -26 5 0 9 -25 9 -55 0 -59 -23 -107
-74 -154 l-26 -24 27 -36 c15 -20 31 -37 35 -39 4 -2 8 -8 8 -14 0 -6 12 -25
28 -43 81 -97 81 -105 2 -105 -38 0 -60 4 -60 11 0 7 -20 36 -45 65 -25 28
-45 56 -45 62 0 5 -9 17 -20 27 -11 10 -20 24 -20 32 0 8 -12 13 -35 13 l-35
0 0 -105 0 -105 -45 0 -44 0 -4 253 c-2 138 -7 267 -12 285 -15 64 22 72 208
47z m762 5 c3 -5 23 -10 43 -11 53 -1 110 -36 154 -94 44 -58 53 -100 46 -218
-4 -65 -11 -93 -33 -132 -28 -53 -82 -99 -128 -110 -15 -4 -27 -11 -27 -16 0
-5 -60 -9 -134 -9 l-135 0 -3 288 c-2 158 -1 293 1 300 4 15 207 17 216 2z
m649 4 c11 -4 16 -19 16 -50 l0 -44 -100 0 -100 0 0 -80 0 -80 90 0 90 0 -6
-27 c-11 -46 -22 -52 -97 -55 l-72 -3 0 -85 0 -85 108 -3 c84 -2 107 -6 107
-17 0 -7 -4 -17 -10 -20 -5 -3 -10 -15 -10 -26 0 -18 -8 -19 -149 -19 l-150 0
-3 288 c-2 158 -1 293 1 300 2 9 38 12 136 12 73 0 140 -3 149 -6z m995 -26
c7 -18 20 -46 27 -62 8 -16 14 -35 14 -43 0 -8 11 -39 25 -69 14 -30 25 -60
25 -67 0 -7 6 -23 13 -37 7 -14 21 -50 30 -80 10 -30 22 -64 27 -75 23 -52 39
-92 45 -112 6 -22 4 -23 -53 -23 l-59 0 -12 43 c-7 23 -17 50 -22 59 -5 10 -9
25 -9 33 0 12 -17 15 -100 15 l-100 0 -17 -37 c-9 -21 -22 -54 -28 -73 -10
-33 -14 -35 -58 -38 -41 -3 -47 -1 -47 16 0 11 7 33 15 48 8 16 15 37 15 46 0
9 11 38 25 64 14 26 25 55 25 65 0 11 4 19 10 19 5 0 12 16 16 35 3 19 10 38
15 41 5 3 9 14 9 24 0 10 8 33 17 52 29 59 33 68 33 79 0 13 29 78 43 97 5 6
21 12 36 12 20 0 29 -8 40 -32z m589 20 c7 -7 12 -29 12 -50 l0 -38 -105 0
-105 0 0 -80 0 -80 90 0 90 0 0 -28 c0 -44 -16 -52 -102 -52 l-78 0 0 -130 0
-130 -45 0 -44 0 -4 253 c-2 138 -7 267 -12 285 -13 57 0 62 154 62 93 0 141
-4 149 -12z m880 0 c13 -13 16 -47 6 -72 -5 -13 -25 -16 -110 -16 l-104 0 0
-80 0 -80 91 0 90 0 -3 -37 -3 -38 -88 -3 -88 -3 3 -87 3 -87 113 -3 c120 -3
123 -4 100 -55 l-13 -27 -147 0 -148 0 0 265 c0 188 -3 271 -12 284 -9 15 -9
23 1 35 11 13 38 16 155 16 97 0 146 -4 154 -12z m292 2 c0 -5 15 -10 33 -10
46 0 111 -34 140 -72 54 -72 38 -170 -38 -239 l-34 -31 41 -57 c22 -31 46 -60
52 -66 25 -21 66 -83 66 -98 0 -14 -10 -17 -52 -17 -43 0 -57 5 -80 27 -15 15
-28 30 -28 35 0 5 -23 40 -51 78 -44 60 -55 70 -81 70 l-31 0 6 -106 6 -105
-52 3 -52 3 -5 285 c-3 157 -1 291 4 298 10 15 156 17 156 2z m-6718 -257 l3
-248 113 -3 c88 -2 112 -6 112 -17 0 -7 -5 -17 -10 -20 -5 -3 -10 -15 -10 -26
0 -18 -8 -19 -150 -19 -147 0 -150 0 -155 23 -2 12 -6 142 -7 290 l-3 267 52
0 53 0 2 -247z m4212 231 c3 -9 6 -121 6 -250 l0 -234 105 0 c103 0 105 0 105
-23 0 -54 -13 -58 -170 -55 l-145 3 -3 288 -2 287 49 0 c35 0 51 -4 55 -16z
m1831 -24 l0 -35 -87 -3 -88 -3 -2 -247 -3 -247 -52 -3 -53 -3 -2 248 -3 248
-87 3 -88 3 0 40 0 39 233 -2 232 -3 0 -35z"/>
<path d="M5810 3191 c-24 -6 -43 -51 -23 -51 5 0 15 -16 23 -35 14 -35 24 -43
34 -26 3 5 22 12 41 15 36 7 57 32 38 45 -5 3 -13 18 -17 34 -5 23 -11 27 -39
26 -17 -1 -43 -4 -57 -8z"/>
<path d="M5991 3193 c0 -5 8 -21 18 -38 16 -28 22 -30 80 -33 l63 -3 -7 28
c-11 46 -23 53 -91 53 -35 0 -64 -3 -63 -7z"/>
<path d="M6236 3173 c7 -16 14 -34 14 -40 0 -7 5 -13 11 -13 11 0 8 -86 -7
-157 -6 -30 -4 -33 19 -33 13 0 29 6 35 13 5 6 12 67 13 135 l4 122 -52 0 -52
0 15 -27z"/>
<path d="M5651 3181 c-11 -7 -11 -13 0 -37 20 -40 49 -44 49 -7 0 16 -5 34
-12 41 -14 14 -19 15 -37 3z"/>
<path d="M5574 3055 c-8 -32 12 -83 27 -68 14 14 7 85 -8 90 -7 3 -15 -7 -19
-22z"/>
<path d="M2190 3033 c-54 -11 -65 -41 -23 -60 32 -15 195 -17 221 -4 9 6 38
13 64 16 53 7 65 17 42 36 -16 13 -253 23 -304 12z"/>
<path d="M6070 3031 c0 -5 11 -16 25 -25 14 -9 25 -24 25 -34 0 -21 19 -42 37
-42 9 0 13 17 13 55 l0 55 -50 0 c-27 0 -50 -4 -50 -9z"/>
<path d="M5690 2986 l0 -47 30 23 c34 25 38 43 13 52 -10 3 -24 9 -30 12 -10
4 -13 -7 -13 -40z"/>
<path d="M5887 2989 c-16 -21 -13 -52 7 -68 17 -14 61 -2 75 21 11 17 9 24
-10 44 -28 29 -53 31 -72 3z"/>
<path d="M3385 2983 c-104 -1 -199 -7 -210 -12 -11 -6 -45 -14 -75 -20 -90
-16 -114 -22 -135 -32 -21 -9 -89 -27 -140 -36 -16 -3 -35 -9 -40 -14 -6 -4
-42 -11 -80 -15 -39 -4 -74 -10 -80 -14 -5 -4 -36 -11 -67 -14 -32 -4 -60 -12
-63 -17 -4 -5 -17 -9 -30 -9 -13 0 -26 -4 -29 -9 -3 -4 -25 -11 -48 -15 -23
-4 -47 -11 -53 -15 -5 -5 -23 -11 -39 -15 -28 -7 -152 -65 -206 -97 -41 -24
-129 -118 -136 -144 -3 -14 -10 -28 -15 -31 -12 -7 -11 -121 1 -129 6 -3 10
-16 10 -29 0 -13 13 -42 30 -64 16 -23 30 -45 30 -49 0 -5 30 -30 66 -58 36
-27 71 -54 78 -60 11 -9 32 -21 106 -60 14 -7 43 -21 65 -30 22 -9 47 -20 55
-24 9 -5 30 -12 47 -15 18 -4 49 -16 70 -26 21 -10 62 -21 91 -25 28 -4 52
-11 52 -16 0 -5 13 -9 29 -9 17 0 32 -4 35 -9 4 -5 41 -12 84 -16 42 -3 85
-10 94 -15 29 -16 460 -35 798 -35 308 0 622 17 645 35 6 4 50 11 100 14 49 4
94 11 100 15 5 5 24 11 40 14 17 3 57 11 90 17 55 10 84 20 125 40 9 4 40 11
69 15 29 4 65 13 79 21 15 8 33 14 40 14 7 0 20 4 30 9 9 5 35 17 57 26 22 9
48 20 57 25 10 6 23 10 29 10 5 0 25 11 43 25 18 14 38 25 44 25 6 0 49 36 95
80 107 101 142 166 134 246 -4 35 -14 65 -29 84 -13 16 -31 40 -40 53 -20 29
-135 112 -170 122 -12 4 -34 15 -48 25 -14 10 -40 21 -58 25 -18 4 -45 13 -60
21 -15 8 -37 14 -49 14 -12 0 -25 5 -28 10 -3 6 -21 10 -39 10 -17 0 -36 4
-41 9 -11 10 -80 27 -172 43 -35 6 -63 15 -63 20 0 4 -15 8 -34 8 -19 0 -37 4
-40 9 -3 4 -34 12 -68 15 -35 4 -67 11 -73 15 -5 5 -35 11 -65 15 -99 12 -205
31 -216 38 -13 9 -519 16 -779 11z m703 -174 c13 -5 41 -9 62 -9 21 0 41 -4
44 -9 3 -5 40 -12 81 -16 41 -4 75 -10 75 -15 0 -4 12 -10 28 -13 45 -8 152
-51 237 -94 43 -22 105 -84 105 -104 0 -10 5 -21 10 -24 30 -19 -10 -141 -63
-188 -44 -39 -101 -81 -132 -97 -16 -9 -39 -21 -50 -28 -44 -25 -115 -52 -139
-52 -15 0 -26 -4 -26 -10 0 -5 -11 -10 -24 -10 -14 0 -27 -4 -30 -9 -3 -5 -68
-12 -143 -16 -84 -5 -141 -12 -145 -19 -10 -16 -726 -16 -736 0 -4 6 -34 15
-67 19 -33 4 -64 10 -70 14 -5 4 -35 15 -65 25 -49 16 -135 56 -198 91 -38 21
-92 77 -110 114 -23 50 -21 127 5 181 28 59 80 130 95 130 6 0 19 6 27 14 23
20 89 56 104 56 7 0 25 7 40 15 16 8 59 18 95 21 37 4 72 10 77 14 31 23 328
38 640 32 138 -2 260 -8 273 -13z m621 -100 c36 -19 81 -54 110 -85 43 -47 51
-62 56 -109 11 -87 0 -135 -45 -189 -57 -69 -132 -120 -194 -131 -20 -4 -39
-11 -42 -16 -7 -12 -94 -12 -94 0 0 10 8 16 108 67 81 43 156 103 173 139 19
41 18 132 -3 175 -17 36 -108 130 -126 130 -15 0 -34 28 -27 40 9 15 17 13 84
-21z m-1965 -21 c-57 -62 -94 -131 -114 -212 -11 -47 -11 -64 -1 -94 24 -69
144 -170 220 -187 19 -4 49 -16 67 -26 18 -10 50 -21 71 -24 35 -6 65 -16 102
-34 8 -4 17 -13 19 -21 4 -10 -12 -12 -84 -6 -49 4 -91 11 -94 15 -3 4 -29 11
-57 14 -66 8 -194 75 -245 128 -21 22 -38 43 -38 46 0 4 -8 15 -17 26 -15 15
-18 37 -17 116 0 92 1 98 36 151 45 71 122 140 156 140 l26 0 -30 -32z m2201
23 c3 -5 19 -12 35 -16 17 -4 30 -10 30 -15 0 -4 9 -10 21 -13 11 -3 23 -15
26 -26 3 -12 10 -21 15 -21 5 0 18 -21 30 -47 17 -38 19 -60 15 -117 -5 -67
-23 -126 -39 -126 -5 0 -8 -6 -8 -13 0 -16 -82 -97 -98 -97 -7 0 -12 -4 -12
-9 0 -5 -30 -24 -67 -41 -38 -17 -75 -35 -84 -40 -9 -5 -38 -12 -65 -15 -27
-4 -55 -12 -61 -17 -20 -16 -143 -23 -143 -9 0 12 94 61 118 61 7 0 20 4 30 9
38 21 91 41 105 41 8 0 20 7 27 16 8 8 27 22 44 30 82 39 127 79 158 140 16
34 20 56 17 116 -3 46 -10 80 -19 92 -28 33 -46 51 -79 78 -18 14 -30 31 -26
37 8 13 22 14 30 2z m313 -128 c20 -16 44 -35 53 -43 18 -17 69 -122 69 -142
0 -8 -11 -43 -25 -78 -48 -123 -176 -219 -321 -242 -74 -12 -128 -5 -121 15 2
6 21 15 43 19 21 5 48 12 59 17 11 5 36 15 55 22 19 7 42 18 51 26 8 7 19 13
23 13 14 0 120 113 136 144 8 16 15 50 15 75 0 46 -3 52 -83 162 -12 16 -10
39 4 39 3 0 22 -12 42 -27z m-2828 -133 c0 -38 4 -70 9 -70 5 0 12 -12 16 -27
6 -27 100 -133 117 -133 5 0 37 -18 72 -40 35 -22 70 -40 79 -40 8 0 17 -4 19
-8 2 -5 33 -23 71 -41 87 -42 92 -66 11 -58 -31 3 -62 11 -67 16 -6 6 -19 11
-30 11 -21 0 -153 64 -178 86 -8 8 -20 14 -25 14 -16 0 -100 92 -124 134 -33
59 -37 123 -11 179 12 26 26 47 31 47 6 0 10 -31 10 -70z m-180 -112 c0 -6 11
-26 25 -44 14 -18 25 -37 25 -41 0 -5 30 -38 68 -73 61 -59 65 -65 43 -68 -58
-9 -120 26 -177 100 -18 23 -27 94 -14 117 12 23 30 28 30 9z"/>
<path d="M3085 2694 c-69 -15 -265 -137 -265 -165 0 -6 -7 -17 -15 -25 -9 -9
-15 -34 -15 -59 0 -25 6 -50 15 -59 8 -8 15 -19 15 -25 0 -6 7 -11 15 -11 8 0
15 -4 15 -8 0 -8 100 -62 117 -62 4 -1 26 -9 48 -20 22 -11 48 -19 58 -20 17
0 27 -4 74 -28 12 -6 59 -14 105 -18 46 -4 89 -11 95 -16 16 -13 526 -12 550
0 10 5 92 12 182 15 97 3 168 10 174 16 6 6 21 11 33 11 13 0 25 4 28 9 3 4
24 11 46 15 22 3 40 10 40 15 0 5 14 12 30 16 17 4 30 10 30 15 0 4 8 11 18
14 39 15 71 38 115 85 37 39 47 58 47 84 0 40 -18 81 -41 93 -23 12 -108 53
-139 66 -14 6 -33 14 -42 19 -9 5 -35 12 -58 15 -22 4 -43 11 -46 15 -7 12
-54 11 -54 -1 0 -5 9 -10 19 -10 11 0 23 -4 26 -10 3 -5 30 -21 59 -35 59 -28
87 -55 106 -102 22 -56 -20 -118 -105 -157 -22 -11 -48 -23 -57 -27 -19 -10
-86 -28 -133 -36 -16 -3 -35 -10 -42 -15 -15 -12 -125 -27 -301 -40 -197 -15
-661 14 -670 42 -2 5 -14 10 -27 10 -13 0 -26 4 -29 9 -3 4 -19 11 -35 14 -17
4 -51 27 -77 52 -46 46 -46 46 -42 103 3 31 10 58 16 60 7 2 12 9 12 16 0 17
118 126 150 139 18 6 -14 7 -45 1z"/>
<path d="M3510 2693 c-47 -2 -89 -8 -94 -13 -6 -6 -20 -10 -32 -10 -32 0 -120
-29 -191 -62 -68 -32 -133 -97 -133 -133 0 -27 65 -88 110 -103 111 -37 432
-60 631 -44 161 13 249 24 300 40 19 6 54 16 79 22 25 6 58 18 73 26 16 8 37
14 46 14 20 0 71 43 71 60 0 19 -33 61 -54 71 -12 5 -28 13 -36 18 -27 17 -88
41 -102 41 -8 0 -18 3 -22 7 -14 15 -82 32 -152 38 -41 4 -74 11 -74 16 0 5
-31 9 -70 9 l-70 0 0 -97 c-1 -119 -9 -134 -79 -141 -67 -6 -94 2 -109 35 -19
40 -25 121 -14 171 5 23 9 41 8 40 0 -1 -39 -4 -86 -5z"/>
<path d="M4218 2693 c6 -2 18 -2 25 0 6 3 1 5 -13 5 -14 0 -19 -2 -12 -5z"/>
<path d="M3677 2654 c-4 -4 -7 -31 -7 -60 0 -37 4 -54 15 -58 18 -7 28 25 23
79 -3 37 -16 53 -31 39z"/>
<path d="M5780 2906 c0 -4 5 -15 10 -26 6 -11 15 -29 20 -40 6 -11 10 -25 10
-32 1 -7 9 -31 20 -53 11 -22 19 -45 20 -51 0 -6 13 -36 29 -67 16 -31 34 -69
40 -84 11 -28 18 -41 54 -96 16 -23 22 -26 33 -16 8 7 11 15 7 18 -11 8 -73
135 -73 150 0 6 -3 11 -8 11 -8 0 -42 73 -42 90 0 6 -4 10 -10 10 -5 0 -10 5
-10 11 0 10 -47 117 -69 158 -8 15 -31 27 -31 17z"/>
<path d="M2097 2894 c-4 -4 -7 -27 -7 -51 0 -31 4 -43 14 -43 8 0 17 4 21 9 3
5 19 12 35 16 17 4 30 10 30 14 0 3 15 13 33 20 l32 14 -50 8 c-27 4 -61 10
-75 14 -14 3 -29 3 -33 -1z"/>
<path d="M6067 2851 c4 -32 20 -70 34 -81 4 -3 9 -12 12 -20 2 -8 3 -1 0 15
-2 17 -8 32 -13 33 -6 2 -10 15 -10 28 0 13 -4 24 -9 24 -5 0 -12 8 -14 18 -2
9 -2 2 0 -17z"/>
<path d="M5287 2800 c29 -17 56 -30 61 -30 5 0 19 -11 32 -25 26 -27 50 -31
98 -14 17 6 52 14 78 17 46 7 75 32 36 32 -25 0 -89 26 -97 40 -4 6 -58 10
-133 10 l-127 0 52 -30z"/>
<path d="M5937 2813 c11 -28 74 -147 85 -160 6 -7 14 -10 20 -7 10 6 4 30 -23
91 -11 24 -24 54 -29 68 -7 17 -17 25 -34 25 -20 0 -24 -4 -19 -17z"/>
<path d="M6238 2823 c12 -2 32 -2 45 0 12 2 2 4 -23 4 -25 0 -35 -2 -22 -4z"/>
<path d="M5750 2697 c0 -13 -7 -32 -15 -43 -8 -10 -15 -24 -15 -30 0 -15 82
-56 92 -46 4 4 -1 26 -11 48 -11 22 -23 52 -26 67 -9 33 -25 36 -25 4z"/>
<path d="M6120 2705 c0 -8 5 -15 10 -15 6 0 10 7 10 15 0 8 -4 15 -10 15 -5 0
-10 -7 -10 -15z"/>
<path d="M6246 2653 c3 -21 10 -42 15 -47 5 -6 9 -17 9 -26 0 -32 21 -40 44
-16 11 12 36 29 54 37 17 8 32 17 32 21 0 14 -54 48 -76 48 -13 0 -24 5 -24
10 0 6 -14 10 -30 10 -30 0 -31 -1 -24 -37z"/>
<path d="M5548 2613 c-22 -5 -23 -17 -3 -33 8 -7 17 -27 21 -46 3 -19 10 -37
15 -40 5 -3 9 -36 9 -75 0 -57 3 -69 16 -69 11 0 14 5 10 16 -3 9 -6 69 -6
135 0 117 0 119 -22 118 -13 -1 -31 -3 -40 -6z"/>
<path d="M6075 2550 c-3 -6 2 -22 13 -38 10 -15 22 -35 25 -44 7 -19 27 -25
27 -8 0 6 -4 18 -9 28 -5 9 -14 29 -20 45 -11 28 -25 35 -36 17z"/>
<path d="M6455 2543 c-23 -2 -54 -14 -70 -27 -25 -20 -27 -25 -15 -38 46 -45
272 -66 365 -34 38 13 60 36 35 36 -7 0 -26 6 -43 14 -102 45 -180 59 -272 49z"/>
<path d="M5690 2468 c0 -111 29 -133 153 -122 l67 7 -6 36 c-3 20 -12 51 -20
69 -12 26 -21 32 -46 32 -31 0 -87 15 -120 31 -27 14 -28 13 -28 -53z"/>
<path d="M6271 2374 c0 -11 3 -14 6 -6 3 7 2 16 -1 19 -3 4 -6 -2 -5 -13z"/>
<path d="M6370 2364 c0 -19 48 -64 69 -64 9 0 24 -7 33 -14 16 -12 17 -25 12
-117 l-7 -104 54 -12 c66 -16 145 -17 154 -3 3 6 19 10 34 10 16 0 34 7 41 15
7 8 19 15 26 15 11 0 14 29 14 145 l0 145 -27 -6 c-16 -4 -32 -10 -38 -14 -5
-5 -37 -10 -70 -13 -33 -3 -73 -8 -88 -12 -16 -4 -38 -3 -50 3 -12 6 -38 13
-57 15 -19 3 -50 9 -67 15 -27 9 -33 8 -33 -4z"/>
<path d="M6125 2360 c-4 -7 -3 -16 3 -22 14 -14 57 -6 57 12 0 18 -50 26 -60
10z"/>
<path d="M6017 2338 c6 -7 13 -20 16 -28 3 -9 6 -3 6 13 1 19 -4 27 -15 27
-12 0 -14 -4 -7 -12z"/>
<path d="M6270 2260 c-14 -4 -41 -8 -60 -9 -41 -1 -60 -16 -60 -47 0 -31 19
-43 86 -56 33 -6 68 -15 80 -20 11 -5 34 -8 50 -6 27 3 29 6 32 56 3 49 2 53
-25 62 -15 6 -36 15 -45 20 -20 11 -23 11 -58 0z"/>
<path d="M5587 2205 c-4 -8 -4 -65 0 -125 4 -68 2 -114 -4 -122 -6 -7 -13 -26
-17 -41 l-7 -29 118 1 c65 0 195 -1 290 -2 120 -1 176 2 184 10 8 8 8 24 -2
63 -12 46 -11 55 3 80 18 31 11 45 -26 51 -25 5 -54 56 -55 96 -1 31 -2 32
-26 21 -19 -9 -31 -8 -49 1 -17 10 -47 11 -107 6 -123 -10 -262 -11 -280 -2
-11 6 -18 3 -22 -8z"/>
<path d="M1743 2022 c-34 -71 -31 -82 20 -63 25 10 27 15 27 71 0 33 -3 60 -7
60 -5 0 -22 -30 -40 -68z"/>
<path d="M6250 2041 c-13 -25 -13 -111 0 -131 13 -20 44 -1 48 29 2 12 16 31
32 43 23 17 27 25 19 40 -5 10 -21 18 -34 18 -13 0 -27 5 -30 10 -10 16 -23
12 -35 -9z"/>
<path d="M6815 2010 c-22 -16 -53 -32 -70 -36 -30 -7 -201 -9 -265 -2 -28 2
-37 -1 -45 -19 -5 -12 -21 -28 -35 -35 -22 -12 -11 -14 105 -21 161 -9 249
-10 341 -2 l72 7 -10 34 c-8 29 -46 106 -51 103 -1 0 -20 -13 -42 -29z"/>
<path d="M1733 1082 c-7 -15 -15 -42 -19 -60 -4 -18 -11 -35 -15 -38 -5 -3 -9
-12 -9 -20 0 -11 15 -14 65 -14 36 0 65 4 65 9 0 5 -7 22 -15 37 -8 16 -15 36
-15 45 0 22 -23 69 -35 69 -6 0 -16 -12 -22 -28z"/>
<path d="M3510 1115 c0 -103 0 -105 23 -105 13 0 41 9 64 20 53 25 76 72 62
122 -12 46 -46 68 -104 68 l-45 0 0 -105z"/>
<path d="M4263 1013 l2 -208 68 -3 c42 -2 67 1 67 8 0 5 6 10 13 10 17 0 60
47 81 87 20 41 21 162 2 206 -35 78 -81 107 -168 107 l-68 0 3 -207z"/>
<path d="M5948 1084 c-10 -19 -18 -44 -18 -54 0 -11 -4 -20 -9 -20 -5 0 -11
-13 -13 -30 l-5 -30 64 0 c71 0 74 4 44 66 -10 21 -22 54 -26 72 -8 41 -16 40
-37 -4z"/>
<path d="M7720 1115 l0 -105 25 0 c14 0 35 5 48 12 12 6 29 14 37 18 17 8 48
59 49 81 2 29 -31 80 -56 90 -13 5 -42 9 -64 9 l-39 0 0 -105z"/>
</g>
</svg>
